{
    "asset" : {
        "generator" : "Khronos glTF Blender I/O v1.4.40",
        "version" : "2.0"
    },
    "scene" : 0,
    "scenes" : [
        {
            "name" : "Scene",
            "nodes" : [
                0,
                1,
                2
            ]
        }
    ],
    "nodes" : [
        {
            "name" : "Light",
            "rotation" : [
                0.16907575726509094,
                0.7558803558349609,
                -0.27217137813568115,
                0.570947527885437
            ],
            "translation" : [
                4.076245307922363,
                5.903861999511719,
                -1.0054539442062378
            ]
        },
        {
            "name" : "Camera",
            "rotation" : [
                -0.4841863214969635,
                -0.16401009261608124,
                0.09294209629297256,
                -0.854415774345398
            ],
            "translation" : [
                2.421006202697754,
                4.023797988891602,
                6.3115105628967285
            ]
        },
        {
            "mesh" : 0,
            "name" : "Sphere",
            "rotation" : [
                -0.07300712168216705,
                -0.3732866644859314,
                0.18998758494853973,
                0.9051142334938049
            ]
        }
    ],
    "materials" : [
        {
            "doubleSided" : true,
            "name" : "Material.001",
            "pbrMetallicRoughness" : {
                "baseColorTexture" : {
                    "index" : 0,
                    "texCoord" : 0
                },
                "metallicFactor" : 0,
                "roughnessFactor" : 0
            }
        }
    ],
    "meshes" : [
        {
            "name" : "Sphere",
            "primitives" : [
                {
                    "attributes" : {
                        "POSITION" : 0,
                        "NORMAL" : 1,
                        "TEXCOORD_0" : 2
                    },
                    "indices" : 3,
                    "material" : 0
                }
            ]
        }
    ],
    "textures" : [
        {
            "sampler" : 0,
            "source" : 0
        }
    ],
    "images" : [
        {
            "bufferView" : 4,
            "mimeType" : "image/png",
            "name" : "blue ball.png"
        }
    ],
    "accessors" : [
        {
            "bufferView" : 0,
            "componentType" : 5126,
            "count" : 2143,
            "max" : [
                1.0000005960464478,
                1,
                1.000001072883606
            ],
            "min" : [
                -1.000000238418579,
                -1,
                -1
            ],
            "type" : "VEC3"
        },
        {
            "bufferView" : 1,
            "componentType" : 5126,
            "count" : 2143,
            "type" : "VEC3"
        },
        {
            "bufferView" : 2,
            "componentType" : 5126,
            "count" : 2143,
            "type" : "VEC2"
        },
        {
            "bufferView" : 3,
            "componentType" : 5123,
            "count" : 11904,
            "type" : "SCALAR"
        }
    ],
    "bufferViews" : [
        {
            "buffer" : 0,
            "byteLength" : 25716,
            "byteOffset" : 0
        },
        {
            "buffer" : 0,
            "byteLength" : 25716,
            "byteOffset" : 25716
        },
        {
            "buffer" : 0,
            "byteLength" : 17144,
            "byteOffset" : 51432
        },
        {
            "buffer" : 0,
            "byteLength" : 23808,
            "byteOffset" : 68576
        },
        {
            "buffer" : 0,
            "byteLength" : 794269,
            "byteOffset" : 92384
        }
    ],
    "samplers" : [
        {
            "magFilter" : 9729,
            "minFilter" : 9986
        }
    ],
    "buffers" : [
        {
            "byteLength" : 886656,
            "uri" : "data:application/octet-stream;base64,"
        }
    ]
}
