# Blender v2.91.0 OBJ File: 'pistolblend.blend'
# www.blender.org
mtllib pistol.mtl
o Cube
v 1.392425 1.076429 -0.416713
v 1.943138 -1.247720 -0.416713
v 1.392425 1.076429 0.416713
v 1.943138 -1.247720 0.416713
v -1.846416 1.041614 -0.416713
v 0.678185 0.345176 -0.395621
v -1.846416 1.041614 0.416713
v 0.682278 0.337213 0.380908
v 0.997867 -1.250885 -0.416713
v 0.184457 1.073264 0.416713
v 0.997867 -1.250885 0.416713
v 0.184457 1.073264 -0.416713
v 1.822867 0.400185 -0.416713
v -1.555234 0.422340 0.416713
v 1.822867 0.400185 0.416713
v -1.555234 0.422340 -0.416713
v 0.857700 1.079520 0.416713
v 1.550676 0.147518 -0.416713
v 1.550676 0.147518 0.416713
v -1.558399 0.340584 -0.416713
v 0.966217 0.479845 0.416713
v -1.558399 0.340584 0.416713
v -1.833755 0.418640 0.416713
v 1.670946 0.656016 -0.416713
v 1.670946 0.656016 0.416713
v -1.833755 0.418640 -0.416713
v 1.285191 1.238550 0.416713
v 0.795841 -0.453301 -0.416713
v -0.830979 1.057439 0.416713
v 0.795841 -0.453301 0.416713
v -0.830979 1.057439 -0.416713
v -0.348767 0.750930 0.416713
v 0.677026 0.337111 0.391393
v -0.274282 0.828595 0.416713
v 1.470502 -1.249303 0.416713
v 1.261058 1.238646 -0.417536
v 1.470502 -1.249303 -0.416713
v 1.261058 1.238646 0.415890
v 1.340284 0.739852 0.416713
v 1.258446 0.313682 0.416713
v 1.478069 0.947283 0.416713
v 1.392425 1.076429 0.416713
v 1.943138 -1.247720 0.416713
v 1.392425 1.076429 -0.416713
v 1.943138 -1.247720 -0.416712
v -1.846416 1.041614 0.416713
v 0.678185 0.345176 0.395621
v -1.846416 1.041614 -0.416713
v 0.682278 0.337213 -0.380907
v 0.997867 -1.250885 0.416713
v 0.184457 1.073264 -0.416713
v 0.997867 -1.250885 -0.416712
v 0.184457 1.073264 0.416713
v 1.822867 0.400185 0.416713
v -1.555234 0.422340 -0.416713
v 1.822867 0.400185 -0.416713
v -1.555234 0.422340 0.416713
v 0.857700 1.079520 -0.416713
v 1.550676 0.147518 0.416713
v 1.550676 0.147518 -0.416713
v -1.558399 0.340584 0.416713
v 0.966217 0.479845 -0.416713
v -1.558399 0.340584 -0.416713
v -1.833755 0.418640 -0.416713
v 1.670946 0.656016 0.416713
v 1.670946 0.656016 -0.416713
v -1.833755 0.418640 0.416713
v 1.285191 1.238550 -0.416713
v 0.795841 -0.453301 0.416713
v -0.830979 1.057439 -0.416713
v 0.795841 -0.453301 -0.416713
v -0.830979 1.057439 0.416713
v -0.348767 0.750930 -0.416713
v 0.677026 0.337111 -0.391393
v -0.274282 0.828595 -0.416713
v 1.470502 -1.249303 -0.416712
v 1.261058 1.238646 0.417536
v 1.470502 -1.249303 0.416713
v 1.261058 1.238646 -0.415890
v 1.340284 0.739852 -0.416713
v 1.258446 0.313682 -0.416713
v 1.478069 0.947283 -0.416713
vt 0.812500 0.500000
vt 0.875000 0.500000
vt 0.875000 0.750000
vt 0.812500 0.750000
vt 0.562500 0.937500
vt 0.625000 0.937500
vt 0.625000 1.000000
vt 0.562500 1.000000
vt 0.562500 0.000000
vt 0.625000 0.000000
vt 0.625000 0.250000
vt 0.562500 0.250000
vt 0.312500 0.500000
vt 0.375000 0.500000
vt 0.375000 0.750000
vt 0.312500 0.750000
vt 0.562500 0.500000
vt 0.625000 0.500000
vt 0.625000 0.750000
vt 0.562500 0.750000
vt 0.187500 0.500000
vt 0.250000 0.500000
vt 0.250000 0.750000
vt 0.187500 0.750000
vt 0.562500 0.812500
vt 0.625000 0.812500
vt 0.625000 0.875000
vt 0.562500 0.875000
vt 0.687500 0.500000
vt 0.750000 0.500000
vt 0.750000 0.750000
vt 0.687500 0.750000
vt 0.437500 0.812500
vt 0.500000 0.812500
vt 0.500000 0.875000
vt 0.437500 0.875000
vt 0.437500 0.500000
vt 0.500000 0.500000
vt 0.500000 0.750000
vt 0.437500 0.750000
vt 0.437500 0.000000
vt 0.500000 0.000000
vt 0.500000 0.250000
vt 0.437500 0.250000
vt 0.437500 0.937500
vt 0.500000 0.937500
vt 0.500000 1.000000
vt 0.437500 1.000000
vt 0.375000 0.937500
vt 0.375000 1.000000
vt 0.375000 0.000000
vt 0.375000 0.250000
vt 0.375000 0.812500
vt 0.375000 0.875000
vt 0.125000 0.500000
vt 0.125000 0.750000
vt 0.000000 0.000000
vt 0.812500 0.500000
vt 0.812500 0.750000
vt 0.875000 0.750000
vt 0.875000 0.500000
vt 0.562500 0.937500
vt 0.562500 1.000000
vt 0.625000 1.000000
vt 0.625000 0.937500
vt 0.562500 0.000000
vt 0.562500 0.250000
vt 0.625000 0.250000
vt 0.625000 0.000000
vt 0.312500 0.500000
vt 0.312500 0.750000
vt 0.375000 0.750000
vt 0.375000 0.500000
vt 0.562500 0.500000
vt 0.562500 0.750000
vt 0.625000 0.750000
vt 0.625000 0.500000
vt 0.187500 0.500000
vt 0.187500 0.750000
vt 0.250000 0.750000
vt 0.250000 0.500000
vt 0.562500 0.812500
vt 0.562500 0.875000
vt 0.625000 0.875000
vt 0.625000 0.812500
vt 0.687500 0.500000
vt 0.687500 0.750000
vt 0.750000 0.750000
vt 0.750000 0.500000
vt 0.437500 0.812500
vt 0.437500 0.875000
vt 0.500000 0.875000
vt 0.500000 0.812500
vt 0.437500 0.500000
vt 0.437500 0.750000
vt 0.500000 0.750000
vt 0.500000 0.500000
vt 0.437500 0.000000
vt 0.437500 0.250000
vt 0.500000 0.250000
vt 0.500000 0.000000
vt 0.437500 0.937500
vt 0.437500 1.000000
vt 0.500000 1.000000
vt 0.500000 0.937500
vt 0.375000 0.937500
vt 0.375000 1.000000
vt 0.375000 0.000000
vt 0.375000 0.250000
vt 0.375000 0.812500
vt 0.375000 0.875000
vt 0.125000 0.500000
vt 0.125000 0.750000
vt 0.000000 0.000000
vn -0.0156 0.9999 0.0000
vn 0.0000 -0.0000 1.0000
vn -0.9998 -0.0203 0.0000
vn 0.0033 -1.0000 0.0000
vn 0.8337 0.5523 0.0000
vn -0.9694 -0.2455 0.0000
vn 0.0334 0.3428 -0.9388
vn -0.1518 0.9884 0.0000
vn 0.6803 -0.7329 0.0000
vn -0.9993 0.0387 0.0000
vn 0.0102 -0.0300 0.9995
vn -0.3151 -0.9343 -0.1669
vn 0.0003 -1.0000 -0.0049
vn 0.9626 0.2708 0.0000
vn 0.8598 0.5106 0.0000
vn 0.0133 -0.9999 0.0000
vn -0.0414 0.0076 0.9991
vn -0.0067 -0.0325 0.9995
vn -0.9896 -0.1440 0.0018
vn 0.7771 0.6293 0.0000
vn -0.0350 -0.0232 0.9991
vn -0.0011 -0.9999 -0.0102
vn -0.0000 -0.0000 -1.0000
vn 0.0334 0.3428 0.9388
vn 0.0102 -0.0300 -0.9995
vn -0.3151 -0.9343 0.1669
vn 0.0003 -1.0000 0.0049
vn -0.0414 0.0076 -0.9991
vn -0.0067 -0.0325 -0.9995
vn -0.9896 -0.1440 -0.0018
vn -0.0350 -0.0232 -0.9991
vn -0.0011 -0.9999 0.0102
usemtl Material
s off
f 31/1/1 5/2/1 7/3/1 29/4/1
f 34/5/2 29/6/2 7/7/2 23/8/2
f 23/9/3 7/10/3 5/11/3 26/12/3
f 37/13/4 2/14/4 4/15/4 35/16/4
f 24/17/5 1/18/5 3/19/5 25/20/5
f 28/21/6 9/22/6 11/23/6 30/24/6
f 41/25/7 38/26/7 10/27/7 27/28/7
f 36/29/8 12/30/8 10/31/8 38/32/8
f 40/33/2 39/34/2 17/35/2 21/36/2
f 18/37/9 13/38/9 15/39/9 19/40/9
f 22/41/10 14/42/10 16/43/10 20/44/10
f 33/45/11 32/46/11 14/47/11 22/48/11
f 30/49/12 33/45/12 22/48/12 8/50/12
f 8/51/13 22/41/13 20/44/13 6/52/13
f 2/14/14 18/37/14 19/40/14 4/15/14
f 35/53/2 40/33/2 21/36/2 11/54/2
f 39/34/2 41/25/2 27/28/2 17/35/2
f 13/38/15 24/17/15 25/20/15 15/39/15
f 14/42/16 23/9/16 26/12/16 16/43/16
f 32/46/2 34/5/2 23/8/2 14/47/2
f 17/35/2 27/28/2 34/5/2 32/46/2
f 11/54/17 21/36/17 33/45/17 30/49/17
f 21/36/18 17/35/18 32/46/18 33/45/18
f 6/55/19 28/21/19 30/24/19 8/56/19
f 27/28/2 10/27/2 29/6/2 34/5/2
f 12/30/1 31/1/1 29/4/1 10/31/1
f 15/39/2 25/20/2 41/25/2 39/34/2
f 4/15/2 19/40/2 40/33/2 35/53/2
f 19/40/2 15/39/2 39/34/2 40/33/2
f 1/18/20 36/29/20 38/32/20 3/19/20
f 25/20/21 3/19/21 38/26/21 41/25/21
f 9/22/4 37/13/4 35/16/4 11/23/4
f 6/52/22 8/51/22 33/57/22
f 72/58/1 70/59/1 48/60/1 46/61/1
f 75/62/23 64/63/23 48/64/23 70/65/23
f 64/66/3 67/67/3 46/68/3 48/69/3
f 78/70/4 76/71/4 45/72/4 43/73/4
f 65/74/5 66/75/5 44/76/5 42/77/5
f 69/78/6 71/79/6 52/80/6 50/81/6
f 82/82/24 68/83/24 51/84/24 79/85/24
f 77/86/8 79/87/8 51/88/8 53/89/8
f 81/90/23 62/91/23 58/92/23 80/93/23
f 59/94/9 60/95/9 56/96/9 54/97/9
f 63/98/10 61/99/10 57/100/10 55/101/10
f 74/102/25 63/103/25 55/104/25 73/105/25
f 71/106/26 49/107/26 63/103/26 74/102/26
f 49/108/27 47/109/27 61/99/27 63/98/27
f 43/73/14 45/72/14 60/95/14 59/94/14
f 76/110/23 52/111/23 62/91/23 81/90/23
f 80/93/23 58/92/23 68/83/23 82/82/23
f 54/97/15 56/96/15 66/75/15 65/74/15
f 55/101/16 57/100/16 67/67/16 64/66/16
f 73/105/23 55/104/23 64/63/23 75/62/23
f 58/92/23 73/105/23 75/62/23 68/83/23
f 52/111/28 71/106/28 74/102/28 62/91/28
f 62/91/29 74/102/29 73/105/29 58/92/29
f 47/112/30 49/113/30 71/79/30 69/78/30
f 68/83/23 75/62/23 70/65/23 51/84/23
f 53/89/1 51/88/1 70/59/1 72/58/1
f 56/96/23 80/93/23 82/82/23 66/75/23
f 45/72/23 76/110/23 81/90/23 60/95/23
f 60/95/23 81/90/23 80/93/23 56/96/23
f 42/77/20 44/76/20 79/87/20 77/86/20
f 66/75/31 82/82/31 79/85/31 44/76/31
f 50/81/4 52/80/4 76/71/4 78/70/4
f 47/109/32 74/114/32 49/108/32
