# Blender v2.91.0 OBJ File: 'wall.blend'
# www.blender.org
mtllib wall.mtl
o Plane_Plane.002
v -0.834985 3.131019 7.821270
v 2.995045 3.131019 7.821270
v -0.834985 0.015102 7.821270
v 2.841283 0.015102 7.821270
v -0.834985 3.131019 7.977067
v 2.995045 3.131019 7.977067
v -0.834985 0.015102 7.977067
v 2.841283 0.015102 7.977062
vt 0.000000 0.000000
vt 1.000000 0.000000
vt 1.000000 1.000000
vt 0.000000 1.000000
vt 0.000000 0.000000
vt 0.000000 1.000000
vt 1.000000 1.000000
vt 1.000000 0.000000
vn 0.0000 0.0000 -1.0000
vn 0.0000 -0.0000 1.0000
vn -1.0000 0.0000 0.0000
vn -0.0000 1.0000 0.0000
vn 0.9988 -0.0493 0.0000
vn 0.0000 -1.0000 0.0000
usemtl sekat
s off
f 1/1/1 2/2/1 4/3/1 3/4/1
f 5/5/2 7/6/2 8/7/2 6/8/2
f 1/1/3 3/4/3 7/6/3 5/5/3
f 2/2/4 1/1/4 5/5/4 6/8/4
f 4/3/5 2/2/5 6/8/5 8/7/5
f 3/4/6 4/3/6 8/7/6 7/6/6
o Plane.001_Plane.004
v -0.834985 3.131019 3.150303
v 2.995045 3.131019 3.150303
v -0.834985 0.015102 3.150303
v 2.841283 0.015102 3.150303
v -0.834985 3.131019 3.306099
v 2.995045 3.131019 3.306099
v -0.834985 0.015102 3.306099
v 2.841283 0.015102 3.306094
vt 0.000000 0.000000
vt 1.000000 0.000000
vt 1.000000 1.000000
vt 0.000000 1.000000
vt 0.000000 0.000000
vt 0.000000 1.000000
vt 1.000000 1.000000
vt 1.000000 0.000000
vn 0.0000 0.0000 -1.0000
vn 0.0000 -0.0000 1.0000
vn -1.0000 0.0000 0.0000
vn -0.0000 1.0000 0.0000
vn 0.9988 -0.0493 0.0000
vn 0.0000 -1.0000 0.0000
usemtl sekat
s off
f 9/9/7 10/10/7 12/11/7 11/12/7
f 13/13/8 15/14/8 16/15/8 14/16/8
f 9/9/9 11/12/9 15/14/9 13/13/9
f 10/10/10 9/9/10 13/13/10 14/16/10
f 12/11/11 10/10/11 14/16/11 16/15/11
f 11/12/12 12/11/12 16/15/12 15/14/12
o Plane.002_Plane.005
v -0.834985 3.131019 -1.117433
v 2.995045 3.131019 -1.117433
v -0.834985 0.015102 -1.117433
v 2.841283 0.015102 -1.117433
v -0.834985 3.131019 -0.961637
v 2.995045 3.131019 -0.961637
v -0.834985 0.015102 -0.961637
v 2.841283 0.015102 -0.961642
vt 0.000000 0.000000
vt 1.000000 0.000000
vt 1.000000 1.000000
vt 0.000000 1.000000
vt 0.000000 0.000000
vt 0.000000 1.000000
vt 1.000000 1.000000
vt 1.000000 0.000000
vn -0.0000 0.0000 -1.0000
vn 0.0000 -0.0000 1.0000
vn -1.0000 0.0000 0.0000
vn -0.0000 1.0000 0.0000
vn 0.9988 -0.0493 0.0000
vn 0.0000 -1.0000 0.0000
usemtl sekat
s off
f 17/17/13 18/18/13 20/19/13 19/20/13
f 21/21/14 23/22/14 24/23/14 22/24/14
f 17/17/15 19/20/15 23/22/15 21/21/15
f 18/18/16 17/17/16 21/21/16 22/24/16
f 20/19/17 18/18/17 22/24/17 24/23/17
f 19/20/18 20/19/18 24/23/18 23/22/18
o Plane.004_Plane.007
v -0.834985 3.131019 -5.252879
v 2.995045 3.131019 -5.252879
v -0.834985 0.015102 -5.252879
v 2.841283 0.015102 -5.252879
v -0.834985 3.131019 -5.097083
v 2.995045 3.131019 -5.097083
v -0.834985 0.015102 -5.097083
v 2.841283 0.015102 -5.097087
vt 0.000000 0.000000
vt 1.000000 0.000000
vt 1.000000 1.000000
vt 0.000000 1.000000
vt 0.000000 0.000000
vt 0.000000 1.000000
vt 1.000000 1.000000
vt 1.000000 0.000000
vn -0.0000 0.0000 -1.0000
vn 0.0000 -0.0000 1.0000
vn -1.0000 0.0000 0.0000
vn -0.0000 1.0000 0.0000
vn 0.9988 -0.0493 0.0000
vn 0.0000 -1.0000 0.0000
usemtl sekat
s off
f 25/25/19 26/26/19 28/27/19 27/28/19
f 29/29/20 31/30/20 32/31/20 30/32/20
f 25/25/21 27/28/21 31/30/21 29/29/21
f 26/26/22 25/25/22 29/29/22 30/32/22
f 28/27/23 26/26/23 30/32/23 32/31/23
f 27/28/24 28/27/24 32/31/24 31/30/24
o Cube_Cube.001
v -1.396364 -0.004032 12.313492
v -1.396364 3.177808 12.313492
v -1.396364 -0.004032 -10.230368
v -1.396364 3.177808 -10.230368
v 9.387347 -0.004032 12.313492
v 9.387347 3.177808 12.313492
v 9.387347 -0.004032 -10.230368
v 9.387347 3.177808 -10.230368
v -0.833907 -0.004032 11.751036
v -0.833907 3.177808 11.751036
v -0.833907 -0.004032 -9.667912
v -0.833907 3.177808 -9.667912
v 8.824890 -0.004032 11.751036
v 8.824890 3.177808 11.751036
v 8.824890 -0.004032 -9.667912
v 8.824890 3.177808 -9.667912
vt 0.375000 0.000000
vt 0.625000 0.000000
vt 0.625000 0.250000
vt 0.375000 0.250000
vt 0.625000 0.500000
vt 0.375000 0.500000
vt 0.625000 0.750000
vt 0.375000 0.750000
vt 0.625000 1.000000
vt 0.375000 1.000000
vt 0.375000 0.000000
vt 0.375000 0.250000
vt 0.625000 0.250000
vt 0.625000 0.000000
vt 0.375000 0.500000
vt 0.625000 0.500000
vt 0.375000 0.750000
vt 0.625000 0.750000
vt 0.375000 1.000000
vt 0.625000 1.000000
vn -1.0000 0.0000 0.0000
vn 0.0000 0.0000 -1.0000
vn 1.0000 0.0000 0.0000
vn 0.0000 0.0000 1.0000
vn 0.0000 -1.0000 0.0000
vn 0.0000 1.0000 0.0000
usemtl Material.001
s off
f 33/33/25 34/34/25 36/35/25 35/36/25
f 35/36/26 36/35/26 40/37/26 39/38/26
f 39/38/27 40/37/27 38/39/27 37/40/27
f 37/40/28 38/39/28 34/41/28 33/42/28
f 41/43/27 43/44/27 44/45/27 42/46/27
f 43/44/28 47/47/28 48/48/28 44/45/28
f 47/47/25 45/49/25 46/50/25 48/48/25
f 45/49/26 41/51/26 42/52/26 46/50/26
f 33/33/29 35/36/29 43/44/29 41/43/29
f 36/35/30 34/34/30 42/46/30 44/45/30
f 35/36/29 39/38/29 47/47/29 43/44/29
f 40/37/30 36/35/30 44/45/30 48/48/30
f 39/38/29 37/40/29 45/49/29 47/47/29
f 38/39/30 40/37/30 48/48/30 46/50/30
f 37/40/29 33/42/29 41/51/29 45/49/29
f 34/41/30 38/39/30 46/50/30 42/52/30
